<svg xmlns="http://www.w3.org/2000/svg" viewBox="0 0 1200 405" role="img" aria-labelledby="title desc"><title id="title">Tres lentes, tres modos de conocer y actuar</title><desc id="desc">Panel azul para Programador Humanista, verde para Investigador Transdisciplinario, naranja para Artista Transdisciplinario.</desc>
<defs><linearGradient id="p" x2="1" y2="1"><stop stop-color="#133c6e"/><stop offset="1" stop-color="#70a9d9"/></linearGradient><linearGradient id="i" x2="1" y2="1"><stop stop-color="#1c6a4b"/><stop offset="1" stop-color="#8acba0"/></linearGradient><linearGradient id="t" x2="1" y2="1"><stop stop-color="#ae5018"/><stop offset="1" stop-color="#f5b266"/></linearGradient></defs>
<rect width="1200" height="405" rx="20" fill="#eaf0f4"/>
<g><rect x="14" y="14" width="377" height="377" rx="18" fill="url(#p)"/><rect x="411" y="14" width="378" height="377" rx="18" fill="url(#i)"/><rect x="809" y="14" width="377" height="377" rx="18" fill="url(#t)"/></g>
<g font-family="Georgia,serif" fill="white" font-size="38" font-weight="bold"><text x="38" y="66">PH</text><text x="434" y="66">IT</text><text x="832" y="66">AT</text></g>
<g fill="white" font-family="Arial,sans-serif" font-size="22" font-weight="bold"><text x="38" y="107">Programador Humanista</text><text x="434" y="107">Investigador Transdisciplinario</text><text x="832" y="107">Artista Transdisciplinario</text></g>
<g fill="none" stroke="#e7f6ff" stroke-width="4" opacity=".9"><rect x="90" y="148" width="212" height="113" rx="13"/><path d="M116 184 143 204 116 222M174 227h63M120 280h154M194 260v20"/><circle cx="605" cy="196" r="53"/><path d="M648 237 685 277M568 197h71M602 158v77M577 226l48-55"/><path d="M938 230q45-113 111-20t59 5M943 263q89-34 171 0M977 194q27-80 78-6"/><circle cx="952" cy="160" r="13"/><circle cx="1092" cy="168" r="17"/></g>
<g fill="#fff" font-family="Arial,sans-serif" font-size="20"><text x="38" y="323">Construir con sentido humano</text><text x="434" y="323">Indagar con rigor y contraste</text><text x="832" y="323">Imaginar otras posibilidades</text></g>
<g fill="#f6f9fc" font-family="Georgia,serif" font-size="17" font-style="italic"><text x="38" y="360">¿Cómo puede construirse?</text><text x="434" y="360">¿Qué sabemos y cómo lo sabemos?</text><text x="832" y="360">¿Qué otra lectura emerge?</text></g></svg>